<svg xmlns="http://www.w3.org/2000/svg" xmlns:xlink="http://www.w3.org/1999/xlink" xmlns:inkscape="http://www.inkscape.org/namespaces/inkscape" version="1.1" width="500" height="500" viewBox="0 0 500 500">
<defs>
<clipPath id="clip_1">
<path transform="matrix(1,0,0,-1,0,500)" d="M0 500H500V0H0Z"/>
</clipPath>
</defs>
<g inkscape:groupmode="layer" inkscape:label="&#x56FE;&#x5C42; 1">
<g clip-path="url(#clip_1)">
<path transform="matrix(1,0,0,-1,352.8571,177.3143)" d="M0 0-57.106-56.393C-61.586-60.873-63.799-66.779-63.781-72.686-63.799-78.592-61.586-84.498-57.106-88.978L0-146.432V-198.4H-205.714V-146.432L-148.974-88.978C-144.494-84.498-142.263-78.592-142.299-72.686-142.263-66.779-144.494-60.873-148.974-56.393L-205.714 2.14V53.029H0ZM29.586-17.957C32.53-14.098 34.286-9.307 34.286-4.114V64.457C34.286 77.019 23.991 87.314 11.429 87.314H-217.143C-229.723 87.314-240 77.019-240 64.457V-4.114C-240-9.307-238.245-14.098-235.301-17.957-234.661-18.816-233.947-19.639-233.179-20.407L-180.901-72.686-233.179-124.964C-233.947-125.733-234.661-126.555-235.301-127.415-238.245-131.273-240-136.064-240-141.257V-209.829C-240-222.409-229.723-232.686-217.143-232.686H11.429C23.991-232.686 34.286-222.409 34.286-209.829V-141.257C34.286-136.064 32.53-131.273 29.586-127.415 28.928-126.555 28.233-125.733 27.465-124.964L-24.814-72.686 27.465-20.407C28.233-19.639 28.928-18.816 29.586-17.957" fill="#c98a01"/>
<path transform="matrix(1,0,0,-1,326.5623,333.25489)" d="M0 0C.293-.292 .567-.603 .823-.914 2.45-2.889 3.438-5.431 3.438-8.174 3.438-14.464-1.701-19.602-7.991-19.602H-145.134C-151.424-19.602-156.562-14.464-156.562-8.174-156.562-5.431-155.575-2.889-153.947-.914-153.692-.603-153.417-.292-153.143 0L-86.181 66.944C-74.203 82.249-83.73 96.53-89.307 102.802L-107.648 120.85C-112.092 125.294-112.092 132.571-107.648 137.015-105.637 139.026-103.058 140.124-100.425 140.306-99.986 140.361-99.529 140.398-99.072 140.398H-53.705C-52.59 140.398-51.474 140.233-50.414 139.904-48.549 139.374-46.848 138.386-45.477 137.015-41.033 132.571-41.033 125.294-45.477 120.85L-66.341 100.316C-78.72 85.358-70.254 71.259-64.53 64.53ZM26.295 155.941V208.969H-179.419V158.08L-122.679 99.548C-118.199 95.067-115.968 89.161-116.005 83.255-115.968 77.349-118.199 71.442-122.679 66.963L-179.419 9.509V-42.459H26.295V9.509L-30.811 66.963C-35.292 71.442-37.504 77.349-37.486 83.255-37.504 89.161-35.292 95.067-30.811 99.548Z" fill="#ffffff"/>
<path transform="matrix(1,0,0,-1,330,341.4286)" d="M0 0C0-6.29-5.138-11.429-11.429-11.429H-148.571C-154.862-11.429-160-6.29-160 0-160 2.743-159.013 5.285-157.385 7.259-157.129 7.57-156.855 7.881-156.581 8.174L-89.618 75.118C-77.641 90.423-87.168 104.704-92.745 110.976L-111.086 129.024C-115.529 133.467-115.529 140.745-111.086 145.189-109.074 147.2-106.496 148.297-103.863 148.48-103.424 148.535-102.967 148.571-102.51 148.571H-57.143C-56.027 148.571-54.912 148.407-53.851 148.078-51.986 147.547-50.286 146.56-48.914 145.189-44.471 140.745-44.471 133.467-48.914 129.024L-69.778 108.489C-82.158 93.531-73.692 79.433-67.968 72.704L-3.438 8.174C-3.145 7.881-2.871 7.57-2.615 7.259-.987 5.285 0 2.743 0 0" fill="#c98a01"/>
</g>
</g>
</svg>
